<?xml version="1.0" standalone="no"?>
<!DOCTYPE svg PUBLIC "-//W3C//DTD SVG 20010904//EN"
 "http://www.w3.org/TR/2001/REC-SVG-20010904/DTD/svg10.dtd">
<svg version="1.0" xmlns="http://www.w3.org/2000/svg"
 width="120.000000pt" height="120.000000pt" viewBox="0 0 120.000000 120.000000"
 preserveAspectRatio="xMidYMid meet">
<metadata>
Created by potrace 1.11, written by Peter Selinger 2001-2013
</metadata>
<g transform="translate(0.000000,120.000000) scale(0.100000,-0.100000)"
fill="#000000" stroke="none">
<path d="M0 600 l0 -600 600 0 600 0 0 600 0 600 -600 0 -600 0 0 -600z m580
290 l0 -270 -270 0 -270 0 0 270 0 270 270 0 270 0 0 -270z m580 0 l0 -270
-270 0 -270 0 0 270 0 270 270 0 270 0 0 -270z m-580 -580 l0 -270 -270 0
-270 0 0 270 0 270 270 0 270 0 0 -270z m580 0 l0 -270 -270 0 -270 0 0 270 0
270 270 0 270 0 0 -270z"/>
<path d="M290 970 l0 -60 -60 0 c-53 0 -60 -2 -60 -20 0 -18 7 -20 60 -20 l60
0 0 -60 c0 -53 2 -60 20 -60 18 0 20 7 20 60 l0 60 60 0 c53 0 60 2 60 20 0
18 -7 20 -60 20 l-60 0 0 60 c0 53 -2 60 -20 60 -18 0 -20 -7 -20 -60z"/>
<path d="M750 890 c0 -19 7 -20 140 -20 133 0 140 1 140 20 0 19 -7 20 -140
20 -133 0 -140 -1 -140 -20z"/>
<path d="M190 418 c0 -7 21 -34 47 -60 l47 -48 -47 -48 c-46 -47 -58 -72 -35
-72 7 0 34 21 60 47 l48 47 48 -47 c26 -26 53 -47 60 -47 23 0 11 25 -35 72
l-47 48 47 48 c26 26 47 53 47 60 0 23 -25 11 -72 -35 l-48 -47 -48 47 c-47
46 -72 58 -72 35z"/>
<path d="M752 373 c3 -16 18 -18 138 -18 120 0 135 2 138 18 3 16 -9 17 -138
17 -129 0 -141 -1 -138 -17z"/>
<path d="M750 250 c0 -19 7 -20 140 -20 133 0 140 1 140 20 0 19 -7 20 -140
20 -133 0 -140 -1 -140 -20z"/>
</g>
</svg>
